<?xml version="1.0" encoding="UTF-8" standalone="no"?>
<svg
   xmlns:dc="http://purl.org/dc/elements/1.1/"
   xmlns:cc="http://creativecommons.org/ns#"
   xmlns:rdf="http://www.w3.org/1999/02/22-rdf-syntax-ns#"
   xmlns:svg="http://www.w3.org/2000/svg"
   xmlns="http://www.w3.org/2000/svg"
   xmlns:sodipodi="http://sodipodi.sourceforge.net/DTD/sodipodi-0.dtd"
   xmlns:inkscape="http://www.inkscape.org/namespaces/inkscape"
   version="1.1"
   viewBox="0 0 21590 27940"
   preserveAspectRatio="xMidYMid"
   fill-rule="evenodd"
   id="svg2985"
   inkscape:version="0.48.4 r9939"
   width="100%"
   height="100%"
   sodipodi:docname="locked-source.svg">
  <metadata
     id="metadata3157">
    <rdf:RDF>
      <cc:Work
         rdf:about="">
        <dc:format>image/svg+xml</dc:format>
        <dc:type
           rdf:resource="http://purl.org/dc/dcmitype/StillImage" />
        <dc:title></dc:title>
      </cc:Work>
    </rdf:RDF>
  </metadata>
  <defs
     id="defs3155" />
  <sodipodi:namedview
     pagecolor="#ffffff"
     bordercolor="#666666"
     borderopacity="1"
     objecttolerance="10"
     gridtolerance="10"
     guidetolerance="10"
     inkscape:pageopacity="0"
     inkscape:pageshadow="2"
     inkscape:window-width="640"
     inkscape:window-height="480"
     id="namedview3153"
     showgrid="false"
     inkscape:zoom="0.01023622"
     inkscape:cx="10795"
     inkscape:cy="13970"
     inkscape:window-x="461"
     inkscape:window-y="256"
     inkscape:window-maximized="0"
     inkscape:current-layer="svg2985" />
  <g
     visibility="visible"
     id="Default">
    <desc
       id="desc2988">Master slide</desc>
  </g>
  <g
     visibility="visible"
     id="page1">
    <desc
       id="desc2991">Slide</desc>
    <g
       id="g2993">
      <desc
         id="desc2995">Group</desc>
      <g
         id="g2997">
        <desc
           id="desc2999">Drawing</desc>
        <g
           id="g3001">
          <g
             style="stroke:rgb(0,0,0);fill:none"
             id="g3003">
            <path
               style="fill:none"
               d="M 7007,13254 L 9364,13254"
               id="path3005" />
          </g>
          <g
             id="g3007" />
        </g>
      </g>
      <g
         id="g3009">
        <desc
           id="desc3011">Drawing</desc>
        <g
           id="g3013">
          <g
             style="stroke:rgb(0,0,0);fill:none"
             id="g3015">
            <path
               style="fill:none"
               d="M 7007,13254 L 6932,13262 6860,13287 6797,13327 6743,13380 6703,13444 6678,13516 6670,13591 6678,13666 6703,13737 6743,13800 6797,13854 6860,13894 6932,13919 7007,13928 9364,13928 9439,13919 9510,13894 9574,13854 9627,13800 9668,13737 9692,13666 9701,13591 9692,13516 9668,13444 9627,13380 9574,13327 9510,13287 9439,13262 9364,13254"
               id="path3017" />
          </g>
          <g
             id="g3019" />
        </g>
      </g>
      <g
         id="g3021">
        <desc
           id="desc3023">Drawing</desc>
        <g
           id="g3025">
          <g
             style="stroke:rgb(0,0,0);fill:none"
             id="g3027">
            <path
               style="fill:none"
               d="M 7007,14096 L 9364,14096"
               id="path3029" />
          </g>
          <g
             id="g3031" />
        </g>
      </g>
      <g
         id="g3033">
        <desc
           id="desc3035">Drawing</desc>
        <g
           id="g3037">
          <g
             style="stroke:rgb(0,0,0);fill:none"
             id="g3039">
            <path
               style="fill:none"
               d="M 7007,14096 L 6932,14104 6860,14129 6797,14170 6743,14223 6703,14287 6678,14358 6670,14433 6678,14508 6703,14579 6743,14643 6797,14696 6860,14737 6932,14761 7007,14770 9364,14770 9439,14761 9510,14737 9574,14696 9627,14643 9668,14579 9692,14508 9701,14433 9692,14358 9668,14287 9627,14223 9574,14170 9510,14129 9439,14104 9364,14096"
               id="path3041" />
          </g>
          <g
             id="g3043" />
        </g>
      </g>
      <g
         id="g3045">
        <desc
           id="desc3047">Drawing</desc>
        <g
           id="g3049">
          <g
             style="stroke:rgb(0,0,0);fill:none"
             id="g3051">
            <path
               style="fill:none"
               d="M 7007,14938 L 9364,14938"
               id="path3053" />
          </g>
          <g
             id="g3055" />
        </g>
      </g>
      <g
         id="g3057">
        <desc
           id="desc3059">Drawing</desc>
        <g
           id="g3061">
          <g
             style="stroke:rgb(0,0,0);fill:none"
             id="g3063">
            <path
               style="fill:none"
               d="M 7007,14938 L 6932,14947 6860,14971 6797,15012 6743,15065 6703,15129 6678,15200 6670,15275 6678,15350 6703,15421 6743,15485 6797,15538 6860,15579 6932,15603 7007,15612 9364,15612 9439,15603 9510,15579 9574,15538 9627,15485 9668,15421 9692,15350 9701,15275 9692,15200 9668,15129 9627,15065 9574,15012 9510,14971 9439,14947 9364,14938"
               id="path3065" />
          </g>
          <g
             id="g3067" />
        </g>
      </g>
      <g
         id="g3069">
        <desc
           id="desc3071">Drawing</desc>
        <g
           id="g3073">
          <g
             style="stroke:rgb(0,0,0);fill:none"
             id="g3075">
            <path
               style="fill:none"
               d="M 9196,12580 L 9186,12436 9155,12295 9105,12160 9035,12033 8949,11918 8847,11816 8731,11729 8605,11660 8470,11610 8329,11579 8185,11569 8042,11579 7901,11610 7766,11660 7639,11729 7523,11816 7422,11918 7336,12033 7267,12160 7216,12295 7186,12436 7175,12580"
               id="path3077" />
          </g>
          <g
             id="g3079" />
        </g>
      </g>
      <g
         id="g3081">
        <desc
           id="desc3083">Drawing</desc>
        <g
           id="g3085">
          <g
             style="stroke:rgb(0,0,0);fill:none"
             id="g3087">
            <path
               style="fill:none"
               d="M 8690,12580 L 8681,12481 8652,12386 8605,12299 8543,12223 8466,12160 8379,12112 8284,12084 8185,12074 8087,12084 7992,12112 7905,12160 7828,12223 7766,12299 7719,12386 7690,12481 7680,12580"
               id="path3089" />
          </g>
          <g
             id="g3091" />
        </g>
      </g>
      <g
         id="g3093">
        <desc
           id="desc3095">Drawing</desc>
        <g
           id="g3097">
          <g
             style="stroke:rgb(0,0,0);fill:none"
             id="g3099">
            <path
               style="fill:none"
               d="M 9196,12580 L 9196,13254"
               id="path3101" />
          </g>
          <g
             id="g3103" />
        </g>
      </g>
      <g
         id="g3105">
        <desc
           id="desc3107">Drawing</desc>
        <g
           id="g3109">
          <g
             style="stroke:rgb(0,0,0);fill:none"
             id="g3111">
            <path
               style="fill:none"
               d="M 8690,12580 L 8690,13254"
               id="path3113" />
          </g>
          <g
             id="g3115" />
        </g>
      </g>
      <g
         id="g3117">
        <desc
           id="desc3119">Drawing</desc>
        <g
           id="g3121">
          <g
             style="stroke:rgb(0,0,0);fill:none"
             id="g3123">
            <path
               style="fill:none"
               d="M 7175,12580 L 7175,13254"
               id="path3125" />
          </g>
          <g
             id="g3127" />
        </g>
      </g>
      <g
         id="g3129">
        <desc
           id="desc3131">Drawing</desc>
        <g
           id="g3133">
          <g
             style="stroke:rgb(0,0,0);fill:none"
             id="g3135">
            <path
               style="fill:none"
               d="M 7680,12580 L 7680,13254"
               id="path3137" />
          </g>
          <g
             id="g3139" />
        </g>
      </g>
      <g
         id="g3141">
        <desc
           id="desc3143">Drawing</desc>
        <g
           id="g3145">
          <g
             style="stroke:rgb(0,0,0);fill:none"
             id="g3147">
            <path
               style="fill:none"
               d="M 5660,11064 L 10711,11064 10711,16118 5660,16118 5660,11064"
               id="path3149" />
          </g>
          <g
             id="g3151" />
        </g>
      </g>
    </g>
  </g>
</svg>
